/* XPM */
static char *_df7a2a458a940fb99993e62632e8b2fzB3N359TcdHDQsZA[] = {
/* columns rows colors chars-per-pixel */
"75 75 250 2 ",
"   c #1D1E1E",
".  c #3B0A0A",
"X  c #360909",
"o  c #271919",
"O  c #341414",
"+  c #391616",
"@  c #391919",
"#  c #2E0B0B",
"$  c #3F003F",
"%  c #3D183D",
"&  c #222222",
"*  c #2C2C2C",
"=  c #262A2A",
"-  c #352828",
";  c #2F3131",
":  c #2E3939",
">  c #343535",
",  c #393939",
"<  c #36383A",
"1  c #3C2739",
"2  c #1B2020",
"3  c #4C0000",
"4  c #460707",
"5  c #550000",
"6  c #5B0000",
"7  c #5A0C0C",
"8  c #491818",
"9  c #571717",
"0  c #630000",
"q  c #6C0101",
"w  c #670E0E",
"e  c #730000",
"r  c #7B0000",
"t  c #681515",
"y  c #761313",
"u  c #791515",
"i  c #741B1B",
"p  c #583838",
"a  c #4D2D2D",
"s  c #782020",
"d  c #752727",
"f  c #663736",
"g  c #773838",
"h  c #65212C",
"j  c #6A212B",
"k  c #3E413E",
"l  c #7A5530",
"z  c #685717",
"x  c #3E3B40",
"c  c #430043",
"v  c #4C004C",
"b  c #4C0A4C",
"n  c #460946",
"m  c #461946",
"M  c #510051",
"N  c #540B53",
"B  c #5A005A",
"V  c #590D59",
"C  c #570458",
"Z  c #541354",
"A  c #591359",
"S  c #591B5A",
"D  c #561B56",
"F  c #55074B",
"G  c #482748",
"H  c #4A374A",
"J  c #572657",
"K  c #5D355D",
"L  c #5C3B5C",
"P  c #533653",
"I  c #5E0061",
"U  c #5E1661",
"Y  c #620064",
"T  c #66006A",
"R  c #6B006D",
"E  c #660A69",
"W  c #6C0070",
"Q  c #6F0A72",
"!  c #740075",
"~  c #760379",
"^  c #661568",
"/  c #662A67",
"(  c #623462",
")  c #633D63",
"_  c #6A386A",
"`  c #743276",
"'  c #612C5F",
"]  c #3C4141",
"[  c #434545",
"{  c #4A4646",
"}  c #4B4C4C",
"|  c #47494B",
" . c #584A4A",
".. c #594759",
"X. c #545353",
"o. c #5B555A",
"O. c #4C5150",
"+. c #684949",
"@. c #764747",
"#. c #675656",
"$. c #7A5959",
"%. c #735B46",
"&. c #5B625B",
"*. c #634463",
"=. c #644B64",
"-. c #6A476B",
";. c #6B556B",
":. c #6B5B6B",
">. c #764A76",
",. c #765876",
"<. c #714D6E",
"1. c #6A6B6B",
"2. c #666565",
"3. c #786767",
"4. c #6D736D",
"5. c #766776",
"6. c #7D7C7D",
"7. c #767576",
"8. c #76726C",
"9. c #6D5F60",
"0. c #830000",
"q. c #8B0000",
"w. c #8D0E0E",
"e. c #930000",
"r. c #9B0000",
"t. c #9F0E0E",
"y. c #891616",
"u. c #991717",
"i. c #861B03",
"p. c #A40000",
"a. c #AA0606",
"s. c #B50000",
"d. c #BC0000",
"f. c #B70E0E",
"g. c #A41B1B",
"h. c #AB1D1D",
"j. c #A71313",
"k. c #B51A1A",
"l. c #863636",
"z. c #983D3D",
"x. c #862929",
"c. c #A73D3D",
"v. c #B73D3D",
"b. c #AD2020",
"n. c #B5341E",
"m. c #C40000",
"M. c #CA0101",
"N. c #C40C0C",
"B. c #D30000",
"V. c #DA0202",
"C. c #CA1414",
"Z. c #C23D3D",
"A. c #D62D2D",
"S. c #E21606",
"D. c #894E1A",
"F. c #975317",
"G. c #9E510C",
"H. c #AB5407",
"J. c #B45401",
"K. c #B1580B",
"L. c #AD4F07",
"P. c #925D32",
"I. c #936934",
"U. c #A96E39",
"Y. c #A86F14",
"T. c #D36B07",
"R. c #854747",
"E. c #845656",
"W. c #885A5A",
"Q. c #965858",
"!. c #984C4C",
"~. c #A65555",
"^. c #B65858",
"/. c #956E4F",
"(. c #A87A53",
"). c #886666",
"_. c #996A6A",
"`. c #936767",
"'. c #87797A",
"]. c #977575",
"[. c #927963",
"{. c #AD7271",
"}. c #CC6657",
"|. c #7E817E",
" X c #A3970A",
".X c #C99F01",
"XX c #D1CA07",
"oX c #9A816A",
"OX c #B58E69",
"+X c #AB9254",
"@X c #DD985A",
"#X c #7D7082",
"$X c #880489",
"%X c #910692",
"&X c #832986",
"*X c #856786",
"=X c #867886",
"-X c #927592",
";X c #8C6D92",
":X c #8C588F",
">X c #7D8282",
",X c #828181",
"<X c #8B8C8B",
"1X c #8D8587",
"2X c #998887",
"3X c #8E928E",
"4X c #958C95",
"5X c #949393",
"6X c #9C9494",
"7X c #969A96",
"8X c #969A9A",
"9X c #9B9C9B",
"0X c #9B969B",
"qX c #96928D",
"wX c #A48B8B",
"eX c #A59292",
"rX c #AA9191",
"tX c #AC9E9E",
"yX c #A59C98",
"uX c #B79A9A",
"iX c #A69788",
"pX c #9EA09E",
"aX c #B7A596",
"sX c #B8A38E",
"dX c #9D96A3",
"fX c #A29BA2",
"gX c #A295A3",
"hX c #A985AB",
"jX c #9EA1A1",
"kX c #A4A4A4",
"lX c #A5A9AA",
"zX c #ABACAC",
"xX c #AAA5A6",
"cX c #B6A8A8",
"vX c #AEB1AF",
"bX c #B2AEB3",
"nX c #ADB1B1",
"mX c #B4B4B4",
"MX c #B6B8B7",
"NX c #B6BBBA",
"BX c #BABCBC",
"VX c #B5B6B8",
"CX c #C3A7A7",
"ZX c #C5B5B5",
"AX c #C5A68A",
"SX c #BCC0BE",
"DX c #BCC1C1",
"FX c #C3C4C4",
"GX c #C7CBCB",
"HX c #D0D4D4",
/* pixels */
", , , , , , , , , , , , , , , , , , , , , , , , , , , , < , , , , , , , , , , , , , < , , , , , , , , , , , , , , , , , , , , , < , , , , , , , , , , ",
"} , [ | [ [ [ [ [ } | [ [ [ [ [ [ } } [ < [ [ [ [ [ [ [ [ | O.} } } } } | [ [ [ [ [ [ [ [ [ [ } } } } } } } } [ [ [ [ ] < < < ] [ | O.} [ [ [ [ [ [ < ",
"[ u.k.h.g.g.g.g.g.g.g.g.g.g.y.p | } @.k.j.g.g.g.g.g.g.g.g.g.h.h.h.h.h.h.g.g.g.g.g.g.y.p [ [ +.b.k.k.k.k.h.h.h.h.h.h.h.g.u.u.u.g.u.u.g.u.u.u.u.u.y.s [ ",
"x T.S.B.m.M.B.s.d.B.M.d.B.d.q.a ] | g V.V.d.m.d.d.m.s.M.s.m.m.m.M.d.M.s.m.d.s.B.B.m.r.9 < ] f V.B.V.V.V.B.M.M.V.d.M.M.s.B.M.B.d.d.d.s.p.M.s.d.d.C.Y., ",
"I.XXT.n.v.v.Z.z.c.Z.v.c.v.c.l.#.2.4.`.Z.v.z.v.c.c.v.z.v.z.c.v.c.v.c.v.z.c.c.z.v.Z.c.z.+.2.1.$.Z.v.v.v.v.v.v.v.v.z.c.v.z.Z.v.Z.c.c.v.c.z.v.c.v.n..XXXa ",
"XXXX X+XzXlXlXlXzXzXzXzXzXzXzXzXzXzXzXzXzXzXzXzXzXzXzXzXzXzXzXzXzXzXzXzXzXzXzXzXzXzXzXzXzXzXzXzXzXzXzXzXzXzXzXzXzXzXzXzXzXzXzXzXzXzXzXzXlXlXlX+XXX.Xz ",
"U. Xz l 7.7.|.6.,X>X,X,X,X,X,X,X,X,X>X,X,X,X,X,X,X,X,X,X,X,X,X,X,X,X,X,X,X,X,X,X>X,X,X,X,X,X,X,X,X,X,X,X=X,X,X,X>X>X>X>X,XoX'.,X,X,XoX6.4.4.7.%.Y.}.z ",
" .z i.z.6.6.6.6.<X5X5X5X5X5X5X5X5X5X5X5X5X5X5X5X5X5X5X5X5X5X5X5X5X5X5X5X5X5X5X5X5X5X5X5X5X5X5X5X7X7X5X5X5X5X5X5X5X5X5X5X5X5X5X7X7X5X3X6.7.6.6.f s P.- ",
"{ y.e.R.3X].A.g.t 8  .#.s s s s s s s s s s s s s s s s s s s s s s s s s s s s s s s s s s s s s s s s s s s s s s x.g.b.A.A._.#.8 8 a 7.lX<Xf 6 8 * ",
"{ j.p.!.8X).C.{.).+.a a @.`.].{.{.{.]._._._._._._._._._._._._._._._._._._._._._._._._._._._._._._._._._._._._._.].{.{.{.{.}.~.f p +. .$.Z.wX>Xf 3 . * ",
"{ w.e.Q.lX).y tXnX8X#.+.<XlXNXFXNXzXzXNXFXDXNXNXNXNXNXNXNXNXNXNXNXNXNXNXNXNXNXNXNXNXNXNXNXNXNXNXNXNXNXNXNXNXNXzX-X4XnXGXDXVX8X$.3.>X8XcXA.W.7.f 3 . * ",
"{ h 7 ).BX'.8 1XmXnX7X,X<X3XkXkX<X5.5.pXFXFXFXBXmXmXmXmXmXmXmXmXmXmXmXmXmXMXMXMXMXVXVXVXmXmXmXmXmXmXmXmXBXMXlX,X^ S '.mXbXzXkXzX3X5XBXcXw.$.,X .X O * ",
"} | > 6.GX2X8 ,XkXmXmX7X6.6.5X8X1.J A 5.4XBXGXGXFXBXmXmXmXmXmXmXbXgXzXkXfXgXgXgXgXaXaXaXcXmXmXmXmXmXmXMXMXzX=X;.U M _ 9XkXkX8X8XkXBXBX8.8 3.8Xo.  & * ",
" .p - ,XGXkXX.1.3XzXBXmX7X6.6.<X_ M B C V 5.0XBXFXBXBXBXBXBXBXMX0XA 1.o.J C V V Z L.T.T.@XmXmXmXmXBXBXkX=X;.E C M v -.9X0X8X8XkXBXGXzX2.X.'.kX2.o - - ",
"V.N.d.^.GXcX8 8.5XkXmXMXmX5X7.1.X.G v M M V U ,.8XzXmXmXmXmXmXBX4XM N N M v J ;.F L.J.T.T.@XmXmXmX9X|.-.E V M M M G 1.8X0X8XkXmXFXBXjX8.8 '.lX$.3 q d.",
"m.p.r.~.FXcXt '.5X7XkXmXzX7./ ;.2.X.G v v M M A / / ` 1X7XzXmXMXfX=.M M M M N S F L./.OXAXsX5X7.` / U V B M M M G o.4.5.( 7.kXBXBXkX<X8.4 1XmXE.5 q d.",
"r.e.q.Q.GXCXu.wX8X5X8X8X=X/ B ..2.2.X.G v v v v B R B / _ =X7XzXvX4XN v M M M v N /.yXlX8X#X_ / B W Y M M M v G o.2.=.^ B / 7.kXzX5X,X'.t 2XNXE.5 0 p.",
"r r.r.~.DXuXj.tXjX<X5X=XJ T T D K =.o.X.G m n c B ! M B M J -.-XMXxXA v M M M v N 4XmX-X_ ' I B M ! Y v v m G X.&...S T Y T / 1X9X<X,X'.y 2XNXE.5 0 q.",
"0.e.r.~.NXrXu.cXkX5X3X5.v B T T I Z P ..} [ m n M B v M M M M >.BXxXA v M M M v A xXBX>.M B B M v B M n m k } ..P Z B Y T W W *X3X,X,X'.y 2XNXE.5 0 r ",
"r.e.0.Q.NXrXy.cXmXkX7X5.n v B T T Y Y V H } H % c c c c c V L ,XmXfXV v M M M v V fXmX,XL b v v v v v m , H H n v M B T W W E *X,X,X<X'.y 2XNXE.5 0 r ",
"e r.r W.BXeXu ZXBXzXkX6.H n v B T R R I C v n c c c c c n ,.8XmXkX5.N M M M M M N 5.kXmX8X,.n v v c c c c n n v M B T W W E ..6.,X,X5X1Xy eXBXE.5 0 0.",
"e p.r W.BXeXu ZXFXmXzX,Xo.H n M I Y T R I M Y M $ c c n 5._ -.7XgXZ M M M M M M M Z gX7X*.( 5.n c c c v M v v M B T R W E ..4.6.,X<X5X6Xu eXBXE.5 6 e ",
"3 0 6 E.BXeXu ZXHX9X;.*.1.X.P H Z I Y T R B ! Y c $ c v J N b ,.bX-XV v M M M v V -XbX,.n b J v c c v B Y v M B Y T ^ *.,.2.o.X.2.|.9XeXu eXBX$.3 5 3 ",
"O O O 3.BXeXu cXHX*XN N K O.X.X.P J D Y T T R R I v v v v v v _ 7X,XN v M M v v N ,X7X_ c c c c v c B T B M B I S -.,.4.4.X.G m G ;.jXeXu eXBX2.# O O ",
", ] : 7.BXeXu tXHX:XM M n G H H { } { J J / V T R M M v v v v D *.K M M M M M M M P *.D c v v c v v B B V J / ` :.4.5.-.P G c $ c _ kXeXu eXBX2.  = * ",
"X.@.g ].BXrXu xXGX:XB C v v v c % 1 H H ....^ B M B M v v v v M v M M M M M M M v v v c v v c v v M M B ^ ..=.5.5...J v c c c c c -.zXeXu eXBX2.o - * ",
"X.C.V.}.GXuXy.cXBX:XI B M v v c c c c c v M $X! M B M v v v M M M M M M M M M M M M v v v v v v M M M ~ $XB B B M M v c c $ c c v ` zXeXu eXBXE.5 4 * ",
"X.C.s.{.HXCXu.ZXFX>.B I M M v v c c c c c v ! R M B B M v M M M M M M M M M M M M M M v v v M M M B M ~ $XB B B M v v c c $ c c M ` jXeXy.rXNXE.3 . * ",
"a N.m.^.GXuXu.cXzX6.( B B M v v c $ c c c c T T M M M M M M M M Z } } ..:.:.:.o.....Z M v M M M B B M R ~ M C M v v c c c $ $ c J 6.9XeXy.rXBXE.3 . * ",
"[ j.r.Q.DXrXy.cXkX5X6.*.J M M v c c v v c v B T Y M v M M M M M Z o./ &X` / ` &X/ o.Z v M B B B B B R ! Y M M v v v c c c $ G ..6.7XkXtXy.rXBXE.3 . * ",
"{ t.r.Q.BXrXu tX*X>.;.&.o.*.) L L P G G G % n B B B R M M M M v S 5.$X$X! R ! $X$X5.D M M M M B R B T T N P P G G G 1 G G H X.&.;.>.;XcXu.uXDXW.3 . * ",
"} j.p.~.VXwXu yX/ v N P *.-.=.*...L P G G 1 n v v B ! R B M M v D :.$X! R W R ! $X:.D M M B Y R ! Y M M Z P H H G 1 1 G H P L P Z Y &XCXu.uXHX`.3 . * ",
"X.j.e.E.nX2Xy eX/ v M M B B B M v v v v v v v v v M B ! R C v M Z =.~ W W W W W ~ =.Z M M B R ! B B B B M v v c c v c c c v v M B Y &XZXu.CXHX`.3 . * ",
"{ j.s.~.nX2Xt 6X/ v M M B B M M M v v v v v v v M M M M M M M v S 5.%X~ R R W ~ %X5.S M M M C M B B B M v v c c v v v v v v M M I I ` cXu.uXGXW.3 . * ",
"{ w.r.!.jX'.9 1X/ v M M M B M M M v v M v M M M M M M M M M M M Z ..Q %X/ J ~ %XQ o.Z M M M M M B B M M v v v v c v v v v M M B T T ` cXy.uXGXW.3 . * ",
"{ p a 3.zX2X9 qX/ v M M M M M M M M M M M M P J M M M M P Z M v S 4...Q K J ! Q ..4.S M M Z P M M M M J P v c v v v v v v v M B Y B / tXy.rXDX1.o o * ",
"O.O.| 7.zX2Xt 6X:.Z M M M M M M v v b H =.N Z N M M v P J N M v Z 2.4.,.o...) ,.4.2.Z M M N J P M M v b Z b =.H n v v v v M M I I A 5.tXu eXBX2.2 = = ",
"x.x.x._.mXwXy yX3X=.Z v v v v m K ) K G K N M M v N L P M M M M N J ) 1.1.1.1.1.) J N M M M C P L N v v v n K G K ) P m v v M B A =.3XtXu eXBX$.. 8 u ",
"s.d.d.^.NXeXu tXzX3X,._ _ _ _ o.o.=.( M v M M v N K *.M M M M M M v v J =.,.=.J v M M M M M M M *.K N v v v c v K =.=.o._ _ _ _ ,.3XkXyXu wXNXE.5 q s.",
"p.p.p.~.NXeXu tXmXmXlX7X3X=X=X5.J v M M M M M N ( *.M M M M M M M M M M M v M M M M M M M M M M M *.K b v v v v v v J 5.=X=X3X7XlXzXkX6Xt 2XzX@.5 0 e.",
"p.0.0.~.NXeXu tXMX9X4X,X;.N M M M M M M M M M ) *.M M M N M M M M v M M M M M M M M M M M M N M M M *.L v v v v v v M C C V ;.,X3X5X8X1X9 '.9X@.5 6 e ",
"q.r e.~.NXeXu tXNX>.V N N M M M M M M M M M =.K M M M M ;.J K *.v M M M M M M M M M v *.K J ;.M M M M K =.v v v v M B B B B V V N -.5X'.9 '.5X@.5 6 e ",
"r.q.0.Q.NXeXu tXNX>.v v M M M M M M M M M =.K N v M N ..<X7.K N M M v M M M M M M M M N K 7.<X..N M v N K =.M v v M M B B B B M v _ 9X1X9 '.9X@.5 0 0.",
"p.e.r Q.NXrXy.tXNX=XJ v M M M M M M v N *.K N v M v N =X<.( Z v M M M M M M M M M M M v Z ( <.=XN v M v N K *.N v M M B B B B M J 5.9X1Xt '.jX@.5 6 r ",
"q.0.0.Q.NXrXy.tXNX9X-.v M M M M M v N ) ) M v M v A >.>.V v M M M M M M M M M M M M M M M v V >.>.A v M v M ) ) N M M B M B M v -.5XkXqXt '.lX@.5 6 e ",
"0 0 q Q.NXrXy.tXmXzX*XZ v M M M v N K *.M M M M v S ,.M v M M M M M M M M M M M M M M M M M v M ,.S v M M M M *.K N M M M M M Z *XzXzXyXt 2XmXE.5 6 0 ",
". . . $.DXrXy.cXNXBXpX:.N M v v N ( *.M M M M v V A v M M M M M M M M M M M M M M M M M M M M M M A V v M M M M *.( N M M M N :.9XmXmXtXy eXBXE.3 4 . ",
"* * * 7.GXuXy.cXFXFXBX9X:.Z V V =.*.M M M M M M >.=XM M M M M M M M M M M M M M M M M M M M M M M =X>.M M M M M M *.-.V V Z :.pXmXmXmXtXu eXBX2.  & * ",
"} { { <XHXCXg.ZXHXGXFXmXxX4X1X1X5X,.v M M M v <.kXhX$XM v M M M M N ;.Z v M v Z ;.N M M M M v M $XhXkX<.v M M M v ,.5X1X1X4XxXmXmXmXmXtXu rXBX2.  * * ",
"p g.f.{.GXuXg.CXFXFXBXmXmXvXzXmXkX4X,.v v v >.0XmXbXhX;.N v M M M M S M M M M M D M M M M M N ;.hXbXmX0X>.v v v ,.4XkXmXzXvXmXmXmXNXDXcXy.uXFX).3 8 * ",
"{ N.M.^.DXrXu.cXBXBXmXmXmXmXmXjX[.U./.<.;X;XfXVXzX2X(.' M M M M v v v M M M M M v v v M M M M ' (.2XzXVXfX;X;X<./.U.[.jXmXmXBXBXBXBXFXcXy.uXGXW.5 4 * ",
"X.f.s.~.NXrXu.tXmXmXmXmXmXmXmX[.H.J.K./.OXOXOXOX(.P.L.h h F v N ) >.V v M M M v V >.) N v F h h L.P.(.OXOXOXOX/.K.J.H.[.BXBXBXFXFXGXGXZXu.cXHX`.3 . * ",
"{ f.s.~.NXrXy.tXmXmXmXmXmXmXmX+XU.F.F.H.J.J.J.J.L.H.F.l /.<./ ,.<X-XN v M M M v N -X<X,./ <./.l F.H.L.J.J.J.J.H.F.F.U.+XBXBXFXFXGXGXGXZXu.CXHX`.3 . * ",
"{ f.p.Q.NXrXy.tXmXmXmXmXmXmXmXmX2X3.%.D.J.J.J.J.G.l l [.xXmXmXbX-XM M M M M M M M M -XbXmXmXxX[.l l G.J.J.J.J.D.%.3.2XmXmXmXBXBXBXZXFXcXu.uXGXW.3 . * ",
", f.d.~.NXrXy.tXmXmXmXmXmXmXmX6XU.H.H.H.J.J.J.K.K.H.L.K.aXmXmX;XM M M M M M M M M M M ;XmXmXaXK.H.H.K.K.J.J.J.H.H.H.U.6XmXmXmXmXmXBXFXcXy.uXGXW.3 . * ",
"X.f.d.~.nX2Xu eXzXzXzXzXmXmXmXU.F.l P.[.K.J.D.oXyX[.D.K.aX8X<.V v M M M M M M M M M v V <.8XaXK.D.[.yXoXD.J.K.[.P.l F.U.mXmXmXmXmXmXNXxXu rXDXE.3 . * ",
"p j.s.~.nX2Xy eXzXkXkXzXzXzXmXI.l 8.1XyXK.D.oXzXmXxXiX[.8.) V v M M M M M M M M M M M v V ) 8.[.iXxXmXzXoXD.K.yX1X8.l I.mXmXmXmXmXmXmXtXu eXBXE.3 . * ",
"{ t.e.Q.VXwXu yXmXzXzXzXzXzXmXiXqXjXzXaXK.l eXBXzX5X6.) J v v M M M v M M M M M v M M M v v J ) 6.5XzXBXeXl K.aXzXjXqXiXmXmXmXmXmXmXmXtXu eXBX$.3 . * ",
"} d 7 3.BXrXu eXmXmXmXmXmXmXmXVXmXmXmXcXU.F.iXgX,.) G v M M M M v M ( N M M M N ( M v M M M M v G ) ,.gXiXF.U.cXmXmXMXVXmXmXmXmXmXmXmXeXu eXBX$.# O * ",
"] ] < 7.BXrXy 1XzXmXmXmXmXmXmXmXmXmXmXnX6X(.sX*XZ b v M M M M N S _ ;.Z v M v Z ;._ S N M M M M v b Z *XsXU.6XnXmXmXmXmXmXmXmXmXmXmXzX1Xy eXBX2.  & * ",
"+.p p '.BXeXi 3.yXmXmXmXmXmXmXmXmXmXmXmXmXmXmX8X7...Z b M v M K |.fXA v M M M v A fX|.K M v M N Z ..7.8XmXmXmXmXmXmXmXmXmXmXmXmXmXmXyX3.i eXBX2.o - a ",
"M.M.m.^.VXzX8.i $.<XyXbXmXmXmXmXmXmXmXmXmXmXmXmXmXkX7.o.Z C K ,XkX7.V M M M M M V 7.kX,XK C Z o.7.fXmXmXmXmXmXmXmXmXmXmXmXmXmXbXyX<X$.i 8.zXNXE.3 0 a.",
"q.p.0.g 8XmXkX8.d y u g <X9XmXmXmXmXmXmXmXmXmXmXmXmXzXkXgXgXfXvXgXA M M M M M M M A gXvXfXgXfXkXzXmXmXmXmXmXmXmXmXmXmXmXmX9X7XR.u u d 3.5XzX8Xf 5 0 r ",
"e.q.r w +.8XmXlXwX_.W.@.s d l.l.).8XzXNXmXmXmXmXmXmXmXmXmXMXmXMXfXL M M M M M M M L fXMXmXMXmXmXmXmXmXmXmXmXmXNXzX8X).l.l.d d @.)._.wXlXzX8X@.7 5 5 5 ",
"p.0.e 0 7 @.,X8XmXmXlX2XQ.Q.E.@.g g R.Q.7XlXmXNXmXmXmXmXmXmXmXmXzX<XL M M M M M L <XzXmXmXmXmXmXmXmXmXNXmXlX7XQ.R.g g @.E.Q.Q.6XzXmXVX8X,X@.7 5 6 0 0 ",
"e.q.0 5 5 5 a +.,X9XzXBXBXBXzX8X).l.g d @.E.`.2XlXnXNXmXmXmXmXmXmXmX1XL N v N L 1XmXmXmXmXmXmXmXNXnXlX2X`.E.@.d g l.).8XzXBXBXzX8X1X).+.a 5 6 6 0 r e.",
"e e.e 0 0 6 5 6 a #.'.2XqX9XlXmXBXnX9X'.x.s i g 3.].wXkXzXmXmXmXmXmXmX,XK Z K ,XmXmXmXmXmXmXzXkXwX].3.g i s x.'.9XnXBXmXlX9XqX).+.a 5 5 5 6 6 0 e r p.",
"0 e.q.q.q.0 0 0 6 6 6 6 7  .3.6XxXzXzXmXmX9X<X@.y y i 3.1XeXtXxXzXmXmXmX,X1.,XmXmXmXzXxXtXeX1X3.i y y @.<X9XmXmXzXzXxX6X3. .7 6 6 6 5 6 0 q 6 r e.r r.",
"0 e.q.r e q e.e.q 6 6 6 6 7 7 7 p 1.<XbXbXzXzXzXyX1X3.i y y y g ,X6XbXmXzXzXzXmXbX6X,Xg y y y i 3.1XyXzXzXzXzXnX<X1.p 7 7 7 6 6 6 6 6 e r.r 0 6 r e.5 ",
"r e.e r q.0 e q.q q e 0.q.6 6 5 7 9 t j a #.6.kXmXnXzXeXeX2X).@.y i s '.8XkX8X'.s i y @.).2XeXrXzXnXNXkX6.#.a { , < 8 6 6 6 6 0.e q q.r p.r q.r r r.0 ",
"6 0 5 6 0 5 5 6 6 6 6 0 0 5 5 5 5 5 3 3 . - , } 2.6.8XBXBXmXzXeX].).@.d d d d d @.).].eXzXmXmX5X6.@.g f 9 8 . o = * @ 5 3 3 3 0 6 6 0 6 0 6 0 0 6 0 6 ",
"+ + + + + + + + + + + + + + + + + + + O O &     * , } 2.1.6.5XzXBXzXjX`.Q.Q.Q.`.jXzXBXzX5X6.2.} , O # X O # O o * * - + O O + + + + O O O O O O O + + ",
"; < > > < ; ; ; > > > > > < , > ; ; ; ; * * & & & & &   & > } 1.,X,X7XkXmXDXmXkX5X,X,X1.} >     & & & = * & & & * * > > > > , < > > > * * = * * ; > > ",
", X.[ } } , , , } } } } } } X.[ , , , , > > > > * * * * & & o     & [ 2.,X7X,X2.[ *     & & & & * * * * * * > > > , , [ } } X.} } } } } [ [ [ } } } } ",
"X.X.X.X.X.X.X.X.X.X.X.X.X.X.X.X.X.X.X.X.X.X.} , > , > * * & & & & & & & & & & & & o & & & & & &   * > , > , [ [ X.X.X.X.X.X.X.X.X.X.X.X.X.X.X.X.X.X.X."
};
